<?xml version="1.0" standalone="no"?>
<!DOCTYPE svg PUBLIC "-//W3C//DTD SVG 20010904//EN"
 "http://www.w3.org/TR/2001/REC-SVG-20010904/DTD/svg10.dtd">
<svg version="1.0" xmlns="http://www.w3.org/2000/svg"
 width="1056.000000pt" height="440.000000pt" viewBox="0 0 1056.000000 440.000000"
 preserveAspectRatio="xMidYMid meet">
<metadata>
Created by potrace 1.16, written by Peter Selinger 2001-2019
</metadata>
<g transform="translate(0.000000,440.000000) scale(0.100000,-0.100000)"
fill="#E81332" stroke="none">
<path d="M3293 3940 c-79 -26 -161 -99 -200 -178 -24 -50 -28 -69 -28 -147 0
-83 2 -95 34 -153 39 -71 79 -110 154 -149 47 -25 62 -28 152 -28 87 0 107 3
156 26 72 34 134 96 168 168 35 75 37 200 4 273 -73 161 -268 244 -440 188z"/>
<path d="M107 3914 c-4 -4 0 -18 8 -30 45 -69 45 -68 45 -1341 l0 -1203 569 0
c335 0 602 4 648 10 265 35 430 106 569 244 130 130 190 272 201 482 16 304
-99 561 -304 679 l-32 19 34 37 c46 51 82 125 105 215 105 410 -98 749 -519
867 -73 20 -100 21 -696 25 -341 2 -624 0 -628 -4z m1008 -584 c66 -32 129
-99 149 -157 19 -55 21 -159 4 -215 -28 -94 -133 -166 -255 -176 l-63 -5 0
-88 c0 -101 -8 -94 112 -103 190 -15 342 -123 379 -269 18 -73 6 -176 -27
-238 -68 -123 -204 -178 -441 -179 l-123 0 0 731 0 731 108 -4 c88 -3 116 -8
157 -28z"/>
<path d="M2187 3913 c-4 -3 -1 -16 7 -28 8 -12 21 -46 30 -75 14 -48 16 -187
16 -1262 l0 -1208 335 0 335 0 -2 1213 -3 1214 -30 48 c-22 36 -45 57 -84 77
l-53 28 -272 0 c-150 0 -276 -3 -279 -7z"/>
<path d="M6037 3544 c-106 -56 -401 -141 -571 -165 l-86 -12 0 -99 0 -98 -70
0 -70 0 0 -285 0 -285 75 0 75 0 0 -298 c0 -312 10 -444 49 -619 65 -297 199
-544 419 -774 114 -119 199 -187 312 -248 194 -104 375 -157 636 -186 73 -8
145 -20 159 -25 14 -6 31 -10 36 -10 6 0 8 131 7 341 l-3 341 -65 3 c-202 7
-495 160 -634 330 -102 126 -166 265 -207 452 -18 84 -22 140 -26 396 l-5 297
140 0 140 0 -19 -62 c-61 -202 -47 -464 35 -664 108 -264 329 -458 596 -524
129 -32 317 -37 471 -14 133 20 234 24 287 11 l32 -9 0 295 c0 161 -3 296 -6
300 -3 3 -24 -5 -45 -19 -21 -13 -74 -36 -116 -51 -68 -23 -95 -27 -203 -27
-171 -1 -273 27 -359 100 -27 23 -61 72 -61 89 0 3 267 5 594 5 427 0 597 3
602 11 4 6 9 71 12 144 16 421 -172 760 -514 926 -141 68 -213 82 -419 83
-168 0 -186 -2 -268 -27 -105 -32 -209 -83 -293 -142 -80 -57 -200 -186 -246
-265 l-38 -64 -2 235 -3 234 -157 3 -158 3 -2 193 -3 194 -28 -14z m1339 -895
c89 -34 174 -130 174 -199 0 -20 -5 -20 -293 -20 -162 0 -296 3 -300 6 -8 8
19 80 43 115 75 104 242 148 376 98z"/>
<path d="M4368 3200 c-323 -59 -518 -268 -518 -555 0 -140 38 -253 115 -345
70 -83 153 -139 351 -235 198 -97 234 -123 234 -175 0 -67 -89 -103 -204 -82
-103 19 -307 129 -405 217 -22 20 -45 34 -51 30 -11 -7 -15 -697 -4 -707 3 -4
22 1 42 9 44 18 115 14 302 -18 187 -32 439 -32 551 -1 237 65 393 220 443
439 49 216 -8 427 -154 573 -74 74 -151 118 -373 211 -78 33 -152 69 -164 81
-46 43 -20 110 48 128 90 25 285 -39 449 -144 39 -26 75 -44 81 -41 9 6 13
577 4 587 -3 3 -30 -1 -60 -9 -52 -13 -68 -12 -213 12 -168 28 -392 40 -474
25z"/>
<path d="M3036 3161 c-4 -6 1 -25 11 -43 17 -31 18 -89 21 -905 l2 -873 340 0
340 0 -2 833 c-3 830 -3 832 -25 872 -24 46 -54 75 -103 101 -31 17 -64 19
-307 22 -178 2 -273 0 -277 -7z"/>
<path d="M7845 3160 c-4 -6 14 -29 39 -52 59 -52 610 -786 610 -813 0 -25
-558 -788 -641 -876 -35 -37 -63 -69 -63 -73 0 -3 178 -6 396 -6 345 0 400 2
430 16 26 12 72 68 181 218 80 110 154 211 163 223 17 22 19 20 164 -180 80
-111 152 -209 159 -218 7 -9 28 -26 47 -38 34 -20 45 -21 428 -21 215 0 392 3
392 7 0 3 -31 38 -68 77 -57 60 -180 225 -594 797 -26 37 -48 70 -48 75 0 15
536 719 599 786 43 46 61 72 54 79 -6 6 -141 9 -379 7 -349 -3 -371 -4 -400
-23 -18 -11 -100 -107 -184 -213 -124 -157 -155 -191 -165 -180 -7 7 -78 97
-158 199 -122 155 -153 189 -187 203 -35 14 -92 16 -405 16 -242 0 -366 -3
-370 -10z"/>
<path d="M10220 3148 c-61 -32 -83 -66 -88 -135 -3 -49 0 -64 20 -93 51 -75
136 -101 214 -64 95 45 120 172 50 252 -56 64 -122 77 -196 40z m155 -50 c58
-54 60 -131 5 -186 -95 -95 -250 5 -208 134 17 51 66 84 125 84 35 0 50 -6 78
-32z"/>
<path d="M10220 3005 c0 -78 2 -85 20 -85 16 0 20 7 20 35 0 23 5 35 14 35 8
0 23 -16 35 -35 11 -19 27 -35 36 -35 19 0 19 11 0 36 -19 25 -19 31 5 37 15
4 20 14 20 39 0 48 -15 58 -87 58 l-63 0 0 -85z"/>
</g>
</svg>
